<!-- Generator: Adobe Illustrator 18.0.0, SVG Export Plug-In  -->
<svg version="1.1"
	 xmlns="http://www.w3.org/2000/svg" xmlns:xlink="http://www.w3.org/1999/xlink" xmlns:a="http://ns.adobe.com/AdobeSVGViewerExtensions/3.0/"
	 x="0px" y="0px" width="126.2px" height="110.8px" viewBox="0 0 126.2 110.8" enable-background="new 0 0 126.2 110.8"
	 xml:space="preserve">
<defs>
</defs>
<g>
	<g>
		<path fill="#FFFFFF" d="M47,61.9c0,4.3,0,8.5,0,12.8c-3,0-5.8,0-8.8,0c0-13.4,0-26.7,0-40.2c0.6-0.1,1.3-0.1,1.9-0.2
			c4.7-0.3,9.4-0.5,14.1,0.2c3.3,0.5,6.2,1.6,8.2,4.5c1.5,2.1,2.5,4.3,2.7,6.9c0.4,4.2-0.4,7.9-3.5,10.9c-2.4,2.4-5.3,3.9-8.5,4.5
			c-1.8,0.3-3.6,0.3-5.4,0.5C47.7,61.9,47.4,61.9,47,61.9z M47,55.7c0.9,0,1.7,0,2.6,0c4.7,0.2,8.5-3.7,7.9-8.1
			c-0.5-3.4-3-6.6-6.4-7.2c-1-0.2-2.1,0-3.2,0c-0.7,0-0.8,0.2-0.8,0.9c0,4.5,0,9,0,13.6C47,55,47,55.3,47,55.7z"/>
		<path fill="#FFFFFF" d="M67.9,65.4c0.8,0.4,1.5,0.8,2.2,1.1c2,0.9,4,1.9,6.3,2c1.2,0.1,2.4-0.1,3.5-0.4c1.3-0.4,1.5-1.4,0.8-2.5
			c-0.8-1.2-2-1.9-3.3-2.6c-1.5-0.8-3-1.5-4.5-2.2c-1.8-1-3.4-2.2-4.2-4.1c-1.7-4-0.9-9,3.5-11.6c4.7-2.7,9.6-2.7,14.5-0.2
			c0.5,0.3,0.7,0.6,0.7,1.1c0,2,0,4,0,6.1c-0.3-0.1-0.6-0.2-0.8-0.4c-2.4-1.1-4.8-2.2-7.5-2c-0.8,0-1.7,0.3-2.4,0.6
			c-1.5,0.7-1.7,2-0.4,3.1c0.9,0.7,1.9,1.3,2.9,1.8c1.7,0.9,3.4,1.6,5,2.6c3.2,2.1,4.9,5,4.5,8.9c-0.4,3.7-2.4,6.3-5.9,7.5
			c-4.7,1.7-9.3,1.2-13.8-1c-0.8-0.4-1.1-0.9-1.1-1.8C67.9,69.5,67.9,67.5,67.9,65.4z"/>
	</g>
	<g>
		<path fill="#FFFFFF" d="M94.7,110.8H31.5L0,55.4L31.5,0h63.3l31.5,55.4L94.7,110.8z M35,107h56.6l30.3-51.6L91.5,3.8H35L4.7,55.4
			L35,107z"/>
	</g>
</g>
</svg>