<!-- Generator: Adobe Illustrator 18.0.0, SVG Export Plug-In  -->
<svg version="1.1"
	 xmlns="http://www.w3.org/2000/svg" xmlns:xlink="http://www.w3.org/1999/xlink" xmlns:a="http://ns.adobe.com/AdobeSVGViewerExtensions/3.0/"
	 x="0px" y="0px" width="126.2px" height="110.8px" viewBox="0 0 126.2 110.8" enable-background="new 0 0 126.2 110.8"
	 xml:space="preserve">
<defs>
</defs>
<g>
	<g>
		<path fill="#FFFFFF" d="M94.7,110.8H31.5L0,55.4L31.5,0h63.3l31.5,55.4L94.7,110.8z M35,107h56.6l30.3-51.6L91.5,3.8H35L4.7,55.4
			L35,107z"/>
	</g>
	<g>
		<path fill="#FFFFFF" d="M81.2,43.6c0.1,0.4,0.2,0.7,0.2,1.1c0,5.9,0,11.7,0,17.6c0,0.5,0,1,0.1,1.5c0.3,2.9,2.3,4.3,5.2,3.5
			c0.2-0.1,0.5-0.1,0.7-0.2c2-0.8,2.2-1.1,2.2-3.2c0-6.3,0-12.7,0-19c0-0.9,0.2-1.2,1.2-1.2c2.2,0.1,4.3,0,6.5,0
			c0.1,0.4,0.2,0.8,0.2,1.2c0,7.9,0,15.7,0.1,23.6c0,1.6,0.2,3.2,0.3,4.7c0.1,0.8-0.2,1-1,1c-1.6,0-3.3-0.1-4.9,0
			c-1,0-1.4-0.4-1.5-1.3c-0.1-0.4-0.1-0.7-0.2-1.2c-3.7,2.9-7.7,4-12.2,2.1c-3.3-1.9-4.5-5-4.6-8.7c-0.1-3.4,0-6.9,0-10.3
			c0-3.4,0-6.7,0-10.1c0-0.4,0.1-0.7,0.2-1.1C76.1,43.6,78.7,43.6,81.2,43.6z"/>
		<path fill="#FFFFFF" d="M66.5,34.2c0.2,1,0.4,2,0.5,2.9c0.7,6.9,1.3,13.8,2,20.7c0.3,3.6,0.7,7.3,1,10.9c0.1,1.5,0.3,3,0.4,4.4
			c0.1,0.7-0.2,0.9-0.8,0.9c-2.2,0-4.4,0-6.7,0c-0.7,0-0.9-0.2-1-1c-0.4-6.4-0.8-12.8-1.2-19.2c-0.2-3.7-0.3-7.4-0.4-11
			c0-0.2,0-0.3-0.2-0.5c-0.4,2-0.7,4.1-1.2,6.1c-1.6,7-3.3,14.1-5,21.1c-0.5,2.1-0.6,2.1-2.8,2.1c-1.1,0-2.2-0.1-3.3,0
			c-0.9,0.1-1.4-0.3-1.4-1.2c0-0.3-0.1-0.5-0.2-0.8c0-0.1-0.1-0.2-0.1-0.3c0-0.2-0.1-0.4-0.1-0.6c0-0.3-0.1-0.5-0.1-0.8
			c-1.7-7.5-3.4-14.9-5-22.4c-0.3-1.3-0.6-2.7-0.9-4c-0.1,0-0.2,0-0.3,0c0,1.9,0.1,3.8,0,5.7c-0.3,4.8-0.6,9.6-0.9,14.3
			c-0.2,3.1-0.4,6.1-0.6,9.2c-0.1,0.8-0.2,1.6-0.2,2.3c-0.1,0.7-0.3,1-1.1,1c-1.9-0.1-3.8,0-5.7,0c-0.6,0-0.9-0.2-0.8-0.8
			c0.1-1.4,0.3-2.8,0.4-4.2c0.3-2.7,0.7-5.4,1-8.1c0.6-5.5,1.2-11,1.8-16.5c0.3-3.1,0.7-6.2,1-9.3c0-0.4,0.2-0.7,0.4-1
			c3.2,0,6.3,0,9.5,0c0.2,0.4,0.4,0.7,0.5,1.1c1.7,7.2,3.4,14.3,5.1,21.5c0.2,1,0.4,2,0.6,3.2c0.7-3.2,1.3-6.3,2-9.3
			c1.3-5.2,2.7-10.4,4.1-15.6c0.1-0.3,0.3-0.6,0.5-0.9C60.3,34.2,63.4,34.2,66.5,34.2z"/>
	</g>
</g>
</svg>