<!-- Generator: Adobe Illustrator 18.0.0, SVG Export Plug-In  -->
<svg version="1.1"
	 xmlns="http://www.w3.org/2000/svg" xmlns:xlink="http://www.w3.org/1999/xlink" xmlns:a="http://ns.adobe.com/AdobeSVGViewerExtensions/3.0/"
	 x="0px" y="0px" width="126.2px" height="110.8px" viewBox="0 0 126.2 110.8" enable-background="new 0 0 126.2 110.8"
	 xml:space="preserve">
<defs>
</defs>
<g>
	<g>
		<path fill="#FFFFFF" d="M90.7,75.1H35.5c-0.6,0-1-0.5-1-1V35.2c0-0.6,0.5-1,1-1h55.2c0.6,0,1,0.5,1,1v38.9
			C91.7,74.6,91.3,75.1,90.7,75.1z M36.5,73.1h53.2V36.2H36.5V73.1z"/>
		<path fill="#FFFFFF" d="M86.6,71H49.8c-0.6,0-1-0.5-1-1V39.3c0-0.6,0.5-1,1-1h36.8c0.6,0,1,0.5,1,1V70C87.7,70.5,87.2,71,86.6,71z
			 M50.8,69h34.8V40.3H50.8V69z"/>
		<path fill="#FFFFFF" d="M42.7,58.7c-2.3,0-4.1-1.8-4.1-4.1s1.8-4.1,4.1-4.1c2.3,0,4.1,1.8,4.1,4.1S44.9,58.7,42.7,58.7z
			 M42.7,52.6c-1.1,0-2,0.9-2,2s0.9,2,2,2c1.1,0,2-0.9,2-2S43.8,52.6,42.7,52.6z"/>
		<path fill="#FFFFFF" d="M45.7,48.5h-6.1c-0.6,0-1-0.5-1-1v-8.2c0-0.6,0.5-1,1-1h6.1c0.6,0,1,0.5,1,1v8.2
			C46.7,48,46.3,48.5,45.7,48.5z M40.6,46.5h4.1v-6.1h-4.1V46.5z"/>
		<path fill="#FFFFFF" d="M45.7,71h-6.1c-0.6,0-1-0.5-1-1v-8.2c0-0.6,0.5-1,1-1h6.1c0.6,0,1,0.5,1,1V70C46.7,70.5,46.3,71,45.7,71z
			 M40.6,69h4.1v-6.1h-4.1V69z"/>
		<path fill="#FFFFFF" d="M66.2,62.8h-4.1c-0.6,0-1-0.5-1-1V58c0-0.3,0.1-0.5,0.3-0.7l14.3-13.6c0.4-0.4,1-0.4,1.4,0l3.6,3.3
			c0.2,0.2,0.3,0.4,0.3,0.7c0,0.3-0.1,0.5-0.3,0.7L66.9,62.5C66.7,62.7,66.5,62.8,66.2,62.8z M63.1,60.8h2.6l12.8-13.1l-2.1-1.9
			L63.1,58.4C63.1,58.4,63.1,60.8,63.1,60.8z"/>
	</g>
	<g>
		<path fill="#FFFFFF" d="M94.7,110.8H31.5L0,55.4L31.5,0h63.3l31.5,55.4L94.7,110.8z M35,107h56.6l30.3-51.6L91.5,3.8H35L4.7,55.4
			L35,107z"/>
	</g>
</g>
</svg>