<!-- Generator: Adobe Illustrator 18.0.0, SVG Export Plug-In  -->
<svg version="1.1"
	 xmlns="http://www.w3.org/2000/svg" xmlns:xlink="http://www.w3.org/1999/xlink" xmlns:a="http://ns.adobe.com/AdobeSVGViewerExtensions/3.0/"
	 x="0px" y="0px" width="126.2px" height="110.8px" viewBox="0 0 126.2 110.8" enable-background="new 0 0 126.2 110.8"
	 xml:space="preserve">
<defs>
</defs>
<g>
	<g>
		<g>
			<path fill="#FFFFFF" d="M64.6,58.9C64.5,58.9,64.5,58.9,64.6,58.9c-0.2,0-1.2-0.2-2.2-0.6c-1.1,0.4-2.1,0.6-2.2,0.6
				c-0.4,0.1-0.7-0.2-0.7-0.6c-0.1-0.4,0.2-0.7,0.6-0.7c0,0,0.3-0.1,0.8-0.2c-0.7-0.6-1.3-1.3-1.3-2.4c0-1.9,1.1-3.2,2.8-3.2
				c1.8,0,2.8,1.6,2.8,3.2c0,1-0.5,1.8-1.3,2.4c0.5,0.1,0.8,0.2,0.8,0.2c0.4,0.1,0.6,0.4,0.6,0.7C65.2,58.6,64.9,58.9,64.6,58.9z
				 M62.3,53.2c-1.4,0-1.5,1.3-1.5,1.9c0,0.8,0.7,1.4,1.5,1.8c0.8-0.4,1.5-1,1.5-1.8C63.8,54.3,63.3,53.2,62.3,53.2z"/>
		</g>
		<g>
			<path fill="#FFFFFF" d="M65,69.4c-0.4,0-0.6-0.3-0.7-0.6c0-0.3-0.1-5.8,0.2-9.8c-0.1,0-0.1,0-0.1,0c-0.4-0.1-0.6-0.4-0.5-0.8
				c0.1-0.3,0.4-0.6,0.7-0.5c0.1-1.1,0.3-2,0.4-2.6c0.5-1.5,2.1-2.2,3.6-1.7c0.7,0.3,1.3,0.8,1.6,1.5c0.3,0.7,0.4,1.4,0.1,2.2
				c-0.7,1.9-3,2.2-4.6,2.1c-0.2,3.3-0.2,7.6-0.2,9.7C65.7,69.1,65.4,69.4,65,69.4C65.1,69.4,65,69.4,65,69.4z M66,57.7
				c1.2,0.1,2.8-0.1,3.2-1.3c0.1-0.4,0.1-0.8-0.1-1.2c-0.2-0.4-0.5-0.6-0.9-0.8c-0.8-0.3-1.6,0.1-1.9,0.9C66.2,55.9,66,56.7,66,57.7
				z"/>
		</g>
		<g>
			<path fill="#FFFFFF" d="M59.6,69.4C59.6,69.4,59.6,69.4,59.6,69.4c-0.4,0-0.7-0.3-0.7-0.7c0-2,0-6.4-0.2-9.7
				c-1.5,0.1-3.9-0.2-4.6-2.1c-0.3-0.7-0.2-1.5,0.1-2.2c0.3-0.7,0.9-1.2,1.6-1.5c0.7-0.3,1.5-0.2,2.2,0.1c0.7,0.3,1.2,0.9,1.5,1.6
				c0.2,0.5,0.3,1.4,0.4,2.6c0.3-0.1,0.7,0.2,0.7,0.5c0.1,0.4-0.2,0.7-0.5,0.8c0,0-0.1,0-0.1,0c0.3,4.1,0.2,9.5,0.2,9.9
				C60.2,69.1,59.9,69.4,59.6,69.4z M56.9,54.5c-0.2,0-0.3,0-0.5,0.1c-0.4,0.1-0.7,0.4-0.9,0.8c-0.2,0.4-0.2,0.8-0.1,1.2
				c0.4,1.1,2,1.3,3.2,1.2c-0.1-1-0.2-1.8-0.4-2.3c-0.1-0.4-0.4-0.7-0.8-0.9C57.3,54.5,57.1,54.5,56.9,54.5z"/>
		</g>
		<g>
			<path fill="#FFFFFF" d="M62.3,70.6c-2.2,0-4.3-0.5-6.3-1.4c-0.3-0.2-0.5-0.5-0.5-0.9v-2.6c-4.7-2.5-7.6-7.3-7.6-12.7
				c0-7.9,6.5-14.4,14.4-14.4s14.4,6.5,14.4,14.4c0,5.4-2.9,10.2-7.6,12.7v2.6c0,0.4-0.2,0.7-0.5,0.9C66.6,70.1,64.5,70.6,62.3,70.6
				z M57.4,67.7c3.1,1.3,6.6,1.3,9.8,0v-2.6c0-0.4,0.2-0.7,0.5-0.9c4.4-2.1,7.1-6.4,7.1-11.2c0-6.9-5.6-12.5-12.5-12.5
				s-12.5,5.6-12.5,12.5c0,4.8,2.7,9.1,7.1,11.2c0.3,0.2,0.5,0.5,0.5,0.9L57.4,67.7L57.4,67.7z"/>
		</g>
		<g>
			<path fill="#FFFFFF" d="M62.4,73.4c-1.9,0-3.9-0.3-5.7-0.9c-0.4-0.1-0.7-0.6-0.5-1c0.1-0.4,0.6-0.7,1-0.5c3.4,1.1,7,1.1,10.4,0
				c0.4-0.1,0.9,0.1,1,0.5c0.1,0.4-0.1,0.9-0.5,1C66.3,73.1,64.4,73.4,62.4,73.4z"/>
		</g>
		<g>
			<path fill="#FFFFFF" d="M62.4,75.8c-1.5,0-3-0.2-4.4-0.6c-0.4-0.1-0.7-0.6-0.6-1c0.1-0.4,0.6-0.7,1-0.6c2.6,0.7,5.4,0.7,8,0
				c0.4-0.1,0.9,0.1,1,0.6c0.1,0.4-0.1,0.9-0.6,1C65.4,75.6,63.9,75.8,62.4,75.8z"/>
		</g>
		<g>
			<path fill="#FFFFFF" d="M62.3,80.9c-1.9,0-3.5-1.6-3.5-3.5c0-0.2,0-0.5,0.1-0.7c0.1-0.4,0.5-0.7,0.9-0.6c1.7,0.3,3.3,0.3,5,0
				c0.4-0.1,0.8,0.2,0.9,0.7c0,0.2,0.1,0.4,0.1,0.7C65.8,79.3,64.2,80.9,62.3,80.9z M60.5,77.7c0.2,0.8,0.9,1.5,1.8,1.5
				c0.9,0,1.6-0.6,1.8-1.5C62.9,77.9,61.7,77.9,60.5,77.7z"/>
		</g>
		<g>
			<path fill="#FFFFFF" d="M43.1,53.8h-4.9c-0.6,0-1-0.5-1-1c0-0.6,0.5-1,1-1h4.9c0.6,0,1,0.5,1,1C44.1,53.3,43.7,53.8,43.1,53.8z"
				/>
		</g>
		<g>
			<path fill="#FFFFFF" d="M86.5,53.8h-4.9c-0.6,0-1-0.5-1-1c0-0.6,0.5-1,1-1h4.9c0.6,0,1,0.5,1,1C87.5,53.3,87,53.8,86.5,53.8z"/>
		</g>
		<g>
			<path fill="#FFFFFF" d="M62.3,34.6c-0.6,0-1-0.5-1-1v-4.9c0-0.6,0.5-1,1-1s1,0.5,1,1v4.9C63.3,34.1,62.9,34.6,62.3,34.6z"/>
		</g>
		<g>
			<path fill="#FFFFFF" d="M45.2,70.9c-0.3,0-0.5-0.1-0.7-0.3c-0.4-0.4-0.4-1.1,0-1.5l3.5-3.5c0.4-0.4,1.1-0.4,1.5,0s0.4,1.1,0,1.5
				L46,70.6C45.8,70.8,45.5,70.9,45.2,70.9z"/>
		</g>
		<g>
			<path fill="#FFFFFF" d="M75.9,40.2c-0.3,0-0.5-0.1-0.7-0.3c-0.4-0.4-0.4-1.1,0-1.5l3.5-3.5c0.4-0.4,1.1-0.4,1.5,0s0.4,1.1,0,1.5
				l-3.5,3.5C76.4,40.1,76.1,40.2,75.9,40.2z"/>
		</g>
		<g>
			<path fill="#FFFFFF" d="M48.7,40.2c-0.3,0-0.5-0.1-0.7-0.3l-3.5-3.5c-0.4-0.4-0.4-1.1,0-1.5c0.4-0.4,1.1-0.4,1.5,0l3.5,3.5
				c0.4,0.4,0.4,1.1,0,1.5C49.3,40.1,49,40.2,48.7,40.2z"/>
		</g>
		<g>
			<path fill="#FFFFFF" d="M79.4,70.9c-0.3,0-0.5-0.1-0.7-0.3l-3.5-3.5c-0.4-0.4-0.4-1.1,0-1.5c0.4-0.4,1.1-0.4,1.5,0l3.5,3.5
				c0.4,0.4,0.4,1.1,0,1.5C79.9,70.8,79.6,70.9,79.4,70.9z"/>
		</g>
	</g>
	<g>
		<path fill="#FFFFFF" d="M94.7,110.8H31.5L0,55.4L31.5,0h63.3l31.5,55.4L94.7,110.8z M35,107h56.6l30.3-51.6L91.5,3.8H35L4.7,55.4
			L35,107z"/>
	</g>
</g>
</svg>