<!-- Generator: Adobe Illustrator 18.0.0, SVG Export Plug-In  -->
<svg version="1.1"
	 xmlns="http://www.w3.org/2000/svg" xmlns:xlink="http://www.w3.org/1999/xlink" xmlns:a="http://ns.adobe.com/AdobeSVGViewerExtensions/3.0/"
	 x="0px" y="0px" width="126.2px" height="110.8px" viewBox="0 0 126.2 110.8" enable-background="new 0 0 126.2 110.8"
	 xml:space="preserve">
<defs>
</defs>
<g>
	<g>
		<path fill="#FFFFFF" d="M37.2,74.1c0.9-2.8,1.7-5.3,2.5-7.9c3.3-10.2,6.6-20.5,9.8-30.7c0.3-1,0.7-1.4,1.8-1.4
			c2.3,0.1,4.6,0.1,6.8,0c0.8,0,1.2,0.3,1.4,1c3.2,10.1,6.5,20.3,9.7,30.4c0.7,2.3,1.5,4.6,2.2,7c0.1,0.4,0.2,0.8,0.4,1.3
			c-0.7,0-1.3,0.1-2,0.1c-1.4,0-2.8,0-4.2,0.1c-0.9,0.1-1.3-0.3-1.6-1.2c-0.9-3.1-2-6.1-2.9-9.1c-0.3-0.8-0.7-1.1-1.6-1.1
			c-3.5,0-7,0.1-10.4,0c-0.9,0-1.3,0.3-1.5,1.1c-0.9,3-1.9,6-2.7,9c-0.3,1-0.8,1.4-1.8,1.3C41.3,74,39.4,74.1,37.2,74.1z M49.4,57.2
			c3.5,0,6.8,0,10.2,0c-1.8-5.7-3.5-11.3-5.2-16.9C52.7,45.9,51.1,51.5,49.4,57.2z"/>
		<path fill="#FFFFFF" d="M82.5,59.7c0,4.2,0,8.5,0,12.7c0,1.2-0.4,1.6-1.5,1.5c-1.4-0.1-2.8-0.1-4.2,0c-1,0-1.4-0.3-1.4-1.4
			c0-4.1,0-8.2,0-12.2c0-4.5-0.1-9-0.1-13.5c0-1.1,0.3-1.4,1.4-1.3c1.6,0.1,3.1,0.1,4.7,0.1c0.9,0,1.2,0.3,1.2,1.3
			C82.5,51.1,82.5,55.4,82.5,59.7C82.5,59.7,82.5,59.7,82.5,59.7z"/>
		<path fill="#FFFFFF" d="M78.8,41c-2.4,0-3.9-1.5-3.9-3.9c0-2.3,1.6-3.8,4-3.8c2.4,0,4,1.6,4,3.9C82.8,39.5,81.2,41,78.8,41z"/>
	</g>
	<g>
		<path fill="#FFFFFF" d="M94.7,110.8H31.5L0,55.4L31.5,0h63.3l31.5,55.4L94.7,110.8z M35,107h56.6l30.3-51.6L91.5,3.8H35L4.7,55.4
			L35,107z"/>
	</g>
</g>
</svg>