<!-- Generator: Adobe Illustrator 18.0.0, SVG Export Plug-In  -->
<svg version="1.1"
	 xmlns="http://www.w3.org/2000/svg" xmlns:xlink="http://www.w3.org/1999/xlink" xmlns:a="http://ns.adobe.com/AdobeSVGViewerExtensions/3.0/"
	 x="0px" y="0px" width="126.2px" height="110.8px" viewBox="0 0 126.2 110.8" enable-background="new 0 0 126.2 110.8"
	 xml:space="preserve">
<defs>
</defs>
<g>
	<g>
		<path fill="#FFFFFF" d="M94.7,110.8H31.5L0,55.4L31.5,0h63.3l31.5,55.4L94.7,110.8z M35,107h56.6l30.3-51.6L91.5,3.8H35L4.7,55.4
			L35,107z"/>
	</g>
	<g id="Your_Icon_1_">
		<g>
			<path fill="#FFFFFF" d="M75.1,36.5c0.9,0.5,1.6,1.2,1.9,1.9c0.6-0.3,1.2-0.8,1.8-1.8c1.5-2.5,2.1-6.2,0.8-8.9
				c-0.2-0.4-1.9-3.4-1.8-1.9c0.1,2.2-0.5,3.7-1.6,4.8c-1.5,1.5-3.6,2.4-3.9,4.9c0,0.1,0,0.3,0,0.4C73.1,35.8,74.1,35.9,75.1,36.5z"
				/>
			<path fill="#FFFFFF" d="M72.9,45.3l2.7-4.7c0.4-0.8,0.1-1.8-1.3-2.6c-1.4-0.8-2.5-0.6-2.9,0.2l-2.7,4.7c0.7,0,1.5,0.2,2.4,0.7
				C71.9,44.1,72.5,44.6,72.9,45.3z"/>
			<path fill="#FFFFFF" d="M60,58.8L48,81.1c-0.5,0.8-0.3,1.7,0.2,2c0.6,0.3,1.4,0,1.9-0.8l12.2-19.7l-0.4-0.6L60,58.8z"/>
			<path fill="#FFFFFF" d="M66.9,54.6L66.9,54.6L66.9,54.6l0.2,0.3l4.5-7.3c0.4-0.8,0.1-1.8-1.3-2.6c-1.4-0.8-2.5-0.6-2.9,0.2
				l-2.9,5.4l2,3.5C66.6,54.2,66.8,54.4,66.9,54.6z"/>
			<path fill="#FFFFFF" d="M49.6,37.3c0.4-0.6,0.9-1.1,1.7-1.6c0.8-0.5,1.6-0.7,2.3-0.7l-1.3-3.9c0,0-2.9-0.7-4.3-2.2
				c-1.3-1.3-1.8-2.3-1.9-2.5c0-0.1,0-0.1,0-0.2c-0.1-0.1-0.2-0.1-0.3-0.1c-0.1,0.1-0.1,0.2-0.1,0.3c0,0,0.1,0.1,0.1,0.1
				c0.1,0.2,0.7,1.2,1.2,2.9c0.6,2-0.2,4.9-0.2,4.9L49.6,37.3z M49.3,32.2c0.3-0.2,0.7-0.1,0.9,0.2c0.2,0.3,0.1,0.7-0.2,0.9
				c-0.3,0.2-0.7,0.1-0.9-0.2C48.9,32.8,49,32.4,49.3,32.2z"/>
			<path fill="#FFFFFF" d="M60,55.4c0.4-0.6,0.9-1.2,1.8-1.6c0.8-0.5,1.6-0.7,2.3-0.7l-9-15.7c-0.4-0.8-1.5-1-2.9-0.2
				c-1.4,0.8-1.7,1.8-1.3,2.6L60,55.4z"/>
			<path fill="#FFFFFF" d="M78.6,79.4c-0.4,0-1.1,0.1-1.7,0.5c-0.7,0.4-1.1,0.9-1.3,1.3l0.4,0.6c0.5,0.8,1.3,1.1,2.3,0.5
				c1-0.6,1.2-1.5,0.7-2.3L78.6,79.4z"/>
			<path fill="#FFFFFF" d="M69,67.6c-1-1.5-1-1.9-1-2.1c0-0.3,0.1-0.3,0.2-0.4c0.2-0.1,0.3-0.1,0.5,0c0.2,0.1,0.5,0.3,1.3,2
				c0.6,1.1,5.9,10.6,6.5,11.2c0.4-0.2,0.8-0.3,1.2-0.4L65.5,55.4c-0.4-0.8-1.5-1-2.9-0.2c-1.4,0.8-1.7,1.8-1.3,2.6l13.3,21.8
				c0.3-0.3,0.6-0.6,0.9-0.8C75.3,78,69.7,68.6,69,67.6z"/>
		</g>
	</g>
</g>
</svg>