<!-- Generator: Adobe Illustrator 18.0.0, SVG Export Plug-In  -->
<svg version="1.1"
	 xmlns="http://www.w3.org/2000/svg" xmlns:xlink="http://www.w3.org/1999/xlink" xmlns:a="http://ns.adobe.com/AdobeSVGViewerExtensions/3.0/"
	 x="0px" y="0px" width="126.2px" height="110.8px" viewBox="0 0 126.2 110.8" enable-background="new 0 0 126.2 110.8"
	 xml:space="preserve">
<defs>
</defs>
<g>
	<g>
		<path fill="#FFFFFF" d="M94.7,110.8H31.5L0,55.4L31.5,0h63.3l31.5,55.4L94.7,110.8z M35,107h56.6l30.3-51.6L91.5,3.8H35L4.7,55.4
			L35,107z"/>
	</g>
	<g>
		<path fill="#FFFFFF" d="M60.4,54.3c1-2.4,0.9-5-0.1-7.3c-1-2.4-2.9-4.2-5.3-5.2c-1.2-0.5-2.4-0.7-3.6-0.7c-4,0-7.4,2.4-8.9,6
			c-1,2.4-0.9,5,0.1,7.3c1,2.4,2.9,4.2,5.3,5.2c1.2,0.5,2.4,0.7,3.6,0.7C55.5,60.3,58.9,57.9,60.4,54.3z M48.6,58.1
			c-2-0.8-3.5-2.3-4.4-4.3c-0.8-2-0.8-4.1-0.1-6.1c1.2-3,4.1-5,7.4-5c1,0,2.1,0.2,3,0.6c2,0.8,3.5,2.3,4.4,4.3
			c0.8,2,0.8,4.1,0.1,6.1c-1.2,3-4.1,5-7.4,5C50.6,58.7,49.5,58.5,48.6,58.1z"/>
		<path fill="#FFFFFF" d="M92.4,61.5c0-0.2-0.1-0.4-0.2-0.6c-0.2-0.2-0.3-0.2-0.6-0.2l0,0h-2.4c-0.3-1.2-0.7-2.2-1.4-3.3l1.7-1.7
			c0.2-0.2,0.2-0.3,0.2-0.6s-0.1-0.4-0.2-0.6l-3.9-3.9c-0.2-0.2-0.3-0.2-0.6-0.2c-0.2,0-0.4,0.1-0.6,0.2l-1.7,1.7
			c-1.1-0.6-2.1-1.1-3.3-1.3v-2.4c0-0.5-0.3-0.8-0.8-0.8l0,0h-5.4c-0.5,0-0.8,0.3-0.8,0.8V51c-1.2,0.3-2.3,0.7-3.3,1.4l-1.2-1.2
			c0-1,0-2-0.2-3l2.8-1.2c0.4-0.2,0.6-0.7,0.4-1.1l-2.6-6.1c-0.1-0.2-0.2-0.3-0.4-0.4c-0.2-0.1-0.4-0.1-0.7,0l-2.8,1.2
			c-0.9-1.2-2-2.3-3.2-3.2l1.2-2.8c0.1-0.2,0.1-0.4,0-0.7c-0.1-0.2-0.2-0.3-0.4-0.4L56,31.2c-0.4-0.2-0.9,0-1.1,0.5l-1.2,2.8
			c-1.5-0.2-3-0.2-4.5,0.1L48,31.8c-0.2-0.4-0.7-0.6-1.1-0.4l-6.2,2.5c-0.4,0.2-0.6,0.7-0.4,1.1l1.2,2.8c-1.2,0.9-2.3,2.1-3.2,3.2
			l-2.8-1.2c-0.2-0.1-0.4-0.1-0.7,0c-0.2,0.1-0.3,0.2-0.4,0.4L32,46.2c-0.2,0.4,0,0.9,0.5,1.1l2.8,1.2c-0.2,1.5-0.2,3,0.1,4.5
			l-2.9,1.3c-0.4,0.2-0.6,0.7-0.4,1.1l2.6,6.1c0.2,0.4,0.7,0.6,1.1,0.4l2.8-1.2c0.9,1.2,2,2.3,3.2,3.2l-1.2,2.8
			c-0.2,0.4,0,0.9,0.5,1.1l6.1,2.5c0.1,0,0.2,0.1,0.3,0.1c0.1,0,0.2,0,0.3-0.1c0.2-0.1,0.3-0.2,0.4-0.4l1.2-2.8
			c1.5,0.2,3,0.2,4.5-0.1l1.2,2.8c0.2,0.4,0.7,0.6,1.1,0.4l5.6-2.4h1c0.3,1.2,0.7,2.2,1.4,3.3l-1.7,1.7c-0.3,0.3-0.3,0.8,0,1.2
			l3.9,3.9c0.2,0.2,0.3,0.2,0.6,0.2c0.2,0,0.4-0.1,0.6-0.2l1.7-1.7c1.1,0.6,2.1,1.1,3.3,1.3v2.4c0,0.5,0.3,0.8,0.8,0.8l0,0h5.4
			c0.2,0,0.4-0.1,0.6-0.2c0.2-0.2,0.2-0.3,0.2-0.6v-2.4c1.2-0.3,2.3-0.7,3.3-1.4l1.7,1.7c0.3,0.3,0.8,0.3,1.2,0l3.9-3.9
			c0.2-0.2,0.2-0.3,0.2-0.6c0-0.2-0.1-0.4-0.2-0.6l-1.7-1.7c0.6-1,1.1-2.1,1.3-3.3h2.4c0.5,0,0.8-0.4,0.8-0.8L92.4,61.5z M87.7,66.7
			c-0.3,1.4-0.8,2.8-1.6,4c-0.2,0.3-0.2,0.7,0.1,1l1.6,1.6L85,76l-1.6-1.6c-0.2-0.2-0.7-0.3-1.1-0.1c-1.2,0.7-2.6,1.3-4,1.6
			c-0.4,0.1-0.7,0.4-0.7,0.8V79h-3.8v-2.2c0-0.4-0.2-0.7-0.7-0.8c-1.4-0.3-2.7-0.8-4-1.6c-0.2-0.1-0.3-0.2-0.4-0.2
			c-0.2,0-0.4,0.1-0.6,0.2L66.8,76l-2.7-2.6l1.6-1.6c0.2-0.2,0.3-0.7,0.1-1c-0.8-1.2-1.3-2.6-1.6-4c-0.1-0.4-0.4-0.7-0.8-0.7l0,0H61
			v-3.8h2.2c0.4,0,0.7-0.2,0.8-0.7c0.3-1.4,0.8-2.7,1.6-4c0.2-0.3,0.2-0.7-0.1-1l-1.5-1.6l2.6-2.7l1.6,1.6c0.2,0.2,0.7,0.3,1.1,0.1
			c1.2-0.7,2.6-1.3,4-1.6c0.4-0.1,0.7-0.4,0.7-0.8v-2.2h3.8v2.2c0,0.4,0.2,0.7,0.7,0.8c1.4,0.3,2.7,0.8,4,1.6c0.3,0.2,0.7,0.2,1-0.1
			l1.6-1.6l2.7,2.6l-1.6,1.6c-0.2,0.2-0.3,0.7-0.1,1c0.8,1.2,1.3,2.6,1.6,4c0.1,0.4,0.4,0.7,0.8,0.7l0,0h2.2V66h-2.2
			C88.1,66.1,87.8,66.3,87.7,66.7z M54.3,65.2c-1.7,0.3-3.5,0.3-5.3,0.1c-0.4-0.1-0.7,0.2-0.9,0.5L47,68.4l-4.6-1.8l1.1-2.6
			c0.2-0.3,0-0.7-0.3-1c-1.5-1-2.7-2.2-3.7-3.7c-0.2-0.3-0.7-0.4-1-0.2l-2.6,1.1l-1.9-4.5l2.6-1.2c0.3-0.2,0.6-0.5,0.5-0.9
			c-0.3-1.7-0.3-3.5-0.1-5.3c0.1-0.4-0.2-0.7-0.5-0.9l-2.6-1.1l1.8-4.6l2.7,1.1c0.3,0.2,0.7,0,1-0.3c1-1.5,2.2-2.7,3.7-3.8
			c0.3-0.2,0.4-0.7,0.2-1L42.2,35l4.5-1.9l1.2,2.6c0.2,0.3,0.5,0.6,0.9,0.5c1.7-0.3,3.5-0.3,5.3-0.1c0.4,0.1,0.7-0.2,0.9-0.5L56,33
			l4.6,1.8l-1.1,2.6c-0.2,0.3,0,0.7,0.3,1c1.5,1,2.7,2.2,3.8,3.7c0.2,0.3,0.7,0.4,1,0.2l2.6-1.2l1.9,4.5l-2.6,1.2
			c-0.3,0.2-0.6,0.5-0.5,0.9c0.2,0.9,0.2,1.8,0.2,2.7c0,0-0.1,0-0.1,0.1l-3.9,3.9c-0.3,0.3-0.3,0.8,0,1.2l1.7,1.7
			c-0.5,0.8-0.9,1.7-1.2,2.6c-0.2,0.2-0.4,0.4-0.6,0.7h-2.1c-0.2,0-0.4,0.1-0.6,0.2c-0.2,0.2-0.2,0.3-0.2,0.6v5.4l0,0l-3.1,1.4
			l-1.2-2.6C55.1,65.3,54.7,65.1,54.3,65.2z"/>
		<path fill="#FFFFFF" d="M75.9,56.1c-2.1,0-4.2,0.8-5.8,2.4c-1.5,1.6-2.4,3.5-2.4,5.7c0,2.1,0.8,4.2,2.4,5.7
			c1.5,1.5,3.5,2.4,5.7,2.4c2.1,0,4.2-0.8,5.8-2.4c1.5-1.6,2.4-3.5,2.4-5.7c0-2.1-0.8-4.2-2.4-5.7C80.1,57,78.1,56.1,75.9,56.1z
			 M71.4,68.8c-1.2-1.2-1.9-2.8-1.9-4.5s0.7-3.3,1.9-4.5c1.2-1.2,2.8-1.9,4.5-1.9s3.3,0.7,4.5,1.9c1.2,1.2,1.9,2.8,1.9,4.5
			s-0.7,3.3-1.9,4.5c-1.2,1.2-2.8,1.9-4.5,1.9C74.3,70.7,72.6,70,71.4,68.8z"/>
	</g>
</g>
</svg>