<!-- Generator: Adobe Illustrator 18.0.0, SVG Export Plug-In  -->
<svg version="1.1"
	 xmlns="http://www.w3.org/2000/svg" xmlns:xlink="http://www.w3.org/1999/xlink" xmlns:a="http://ns.adobe.com/AdobeSVGViewerExtensions/3.0/"
	 x="0px" y="0px" width="126.2px" height="110.8px" viewBox="0 0 126.2 110.8" enable-background="new 0 0 126.2 110.8"
	 xml:space="preserve">
<defs>
</defs>
<g>
	<g>
		<path fill="#FFFFFF" d="M94.7,110.8H31.5L0,55.4L31.5,0h63.3l31.5,55.4L94.7,110.8z M35,107h56.6l30.3-51.6L91.5,3.8H35L4.7,55.4
			L35,107z"/>
	</g>
	<g>
		<path fill="#FFFFFF" d="M76.8,42.7c0-0.2,0-0.4,0-0.6c0-2.7,0-5.4,0-8.1c0-0.7,0.1-0.8,0.8-0.8c2.3,0,4.6,0,6.9,0
			c0.5,0,0.7,0.1,0.7,0.6c0,0.2,0,0.4,0,0.6c0,6.7,0,13.3,0,20c0,4.7,0,9.4,0,14c0,1.3,0.1,2.6,0.2,3.9c0,0.3-0.2,0.5-0.5,0.6
			c-1.6,0.5-3.2,1.1-4.8,1.6c-2.2,0.6-4.5,0.9-6.9,0.8c-3.5-0.1-6.7-1-9.4-3.2c-1.6-1.3-2.7-2.9-3.6-4.7c-0.8-1.8-1.3-3.6-1.5-5.5
			c-0.1-1.2-0.2-2.4-0.2-3.6c0.2-3.7,1.3-7.1,3.6-10c2.4-3.1,5.5-5,9.3-5.7c1.7-0.3,3.4-0.4,5.2,0C76.6,42.7,76.7,42.7,76.8,42.7z
			 M76.8,59C76.8,59,76.8,59,76.8,59c0-3.1,0-6.1,0-9.2c0-0.3-0.1-0.5-0.4-0.6c-1.2-0.3-2.4-0.4-3.6-0.1c-1.8,0.4-3.2,1.4-4.1,3
			C67.4,54,67,56.2,67,58.4c0,1.3,0.2,2.6,0.4,3.9c0.3,1.8,0.9,3.4,2.1,4.7c1.9,2,4.2,2.4,6.8,1.8c0.4-0.1,0.6-0.2,0.6-0.7
			C76.8,65.1,76.8,62,76.8,59z"/>
		<path fill="#FFFFFF" d="M46.3,54.1c0-6.6,0-13.3,0-19.9c0-0.8,0.1-0.9,0.9-0.9c2.2,0,4.4,0,6.5,0c0.9,0,1,0.1,1,1
			c0,13.2,0,26.3,0,39.5c0,1.2-0.2,1.2-1.2,1.2c-2.1,0-4.1,0-6.2,0c-0.9,0-1-0.1-1-1C46.3,67.3,46.3,60.7,46.3,54.1z"/>
	</g>
</g>
</svg>